<svg width="600" height="400" viewBox="0 0 600 400" xmlns="http://www.w3.org/2000/svg">
  <rect width="600" height="400" fill="#f8f9fa" />
  
  <rect x="20" y="20" width="560" height="360" fill="#e6e2d7" stroke="#999" stroke-dasharray="5,5" />
  <text x="30" y="40" font-size="12" fill="#666">.science_section (Relative / Padding)</text>

  <rect x="100" y="60" width="400" height="280" fill="none" stroke="#007bff" stroke-width="2" />
  <text x="110" y="80" font-size="12" fill="#007bff">.science_container (Flex / Absolute base)</text>

  <rect x="120" y="100" width="60" height="200" fill="#fff" stroke="#333" />
  <text x="140" y="120" font-size="10" writing-mode="vertical-rl">科学と技術の調和</text>
  <text x="170" y="120" font-size="8" writing-mode="vertical-rl" fill="#666">SCIENCE &amp; TECH</text>
  <text x="125" y="315" font-size="10" fill="#333">Title Wrap</text>

  <rect x="240" y="100" width="220" height="150" fill="#ddd" stroke="#000" stroke-width="2" />
  <text x="250" y="120" font-size="10">.science_image_wrap (Width: 50rem)</text>
  
  <rect x="240" y="100" width="280" height="180" fill="none" stroke="red" stroke-width="2" stroke-dasharray="4,2" />
  <text x="380" y="295" font-size="10" fill="red">Actual Image (63.9rem) はみ出し</text>

  <rect x="420" y="230" width="130" height="80" fill="rgba(149, 42, 38, 0.6)" />
  <text x="430" y="250" font-size="10" fill="#fff">.science_label</text>
  <text x="430" y="265" font-size="8" fill="#fff">position: absolute</text>
  <text x="430" y="280" font-size="8" fill="#fff">bottom/right: -5rem</text>

  <line x1="20" y1="385" x2="50" y2="385" stroke="#007bff" stroke-width="2" />
  <text x="60" y="390" font-size="10">Flex Parent</text>
  <line x1="160" y1="385" x2="190" y2="385" stroke="red" stroke-width="2" />
  <text x="200" y="390" font-size="10">Overflow Issue</text>
</svg>